<svg xmlns="http://www.w3.org/2000/svg" viewBox="0 0 11 11">
  <defs>
    <style>
      .cls-1 {
        fill: #e4354c;
      }
    </style>
  </defs>
  <g id="pause" transform="translate(-14.971 -14.942)">
    <path id="Path_263" data-name="Path 263" class="cls-1" d="M1,0H2A1,1,0,0,1,3,1v9a1,1,0,0,1-1,1H1a1,1,0,0,1-1-1V1A1,1,0,0,1,1,0Z" transform="translate(14.971 14.942)"/>
    <path id="Path_264" data-name="Path 264" class="cls-1" d="M1,0H2A1,1,0,0,1,3,1v9a1,1,0,0,1-1,1H1a1,1,0,0,1-1-1V1A1,1,0,0,1,1,0Z" transform="translate(22.971 14.942)"/>
  </g>
</svg>
