<svg xmlns="http://www.w3.org/2000/svg" viewBox="0 0 19.104 15.522">
  <defs>
    <style>
      .cls-1 {
        fill: #e4354c;
      }
    </style>
  </defs>
  <path id="twitter" class="cls-1" d="M19.1,1.851a7.066,7.066,0,0,1-2.269.6A3.858,3.858,0,0,0,18.566.3a7.526,7.526,0,0,1-2.507.955A3.876,3.876,0,0,0,13.194,0a3.936,3.936,0,0,0-3.94,3.94,4.608,4.608,0,0,0,.119.9A11.237,11.237,0,0,1,1.313.716a3.757,3.757,0,0,0-.537,1.97A4.039,4.039,0,0,0,2.507,5.97,3.647,3.647,0,0,1,.716,5.492v.06A3.906,3.906,0,0,0,3.88,9.373a5.882,5.882,0,0,1-1.015.119,2.907,2.907,0,0,1-.716-.06,3.988,3.988,0,0,0,3.642,2.746A7.666,7.666,0,0,1,.955,13.85,5.135,5.135,0,0,1,0,13.791a11.478,11.478,0,0,0,6.03,1.731A11.078,11.078,0,0,0,17.193,4.358V3.821A7.521,7.521,0,0,0,19.1,1.851Z"/>
</svg>
