<svg xmlns="http://www.w3.org/2000/svg" viewBox="0 0 20.292 15.219">
  <defs>
    <style>
      .cls-1 {
        fill: #fff;
      }
    </style>
  </defs>
  <path id="youtube" class="cls-1" d="M20.1,3.3a4.59,4.59,0,0,0-.824-2.156A2.472,2.472,0,0,0,17.248.254C14.394,0,10.146,0,10.146,0h0S5.9,0,3.044.19a2.968,2.968,0,0,0-2.029.888A4.59,4.59,0,0,0,.19,3.234S0,5.01,0,6.785V8.434c0,1.776.19,3.488.19,3.488a4.59,4.59,0,0,0,.824,2.156,3.384,3.384,0,0,0,2.219.951c1.649.127,6.912.19,6.912.19s4.249,0,7.1-.254a2.968,2.968,0,0,0,2.029-.888,4.59,4.59,0,0,0,.824-2.156s.19-1.776.19-3.488V6.785C20.292,5.01,20.1,3.3,20.1,3.3ZM7.609,11.414V3.8l6.341,3.8Z" transform="translate(0)"/>
</svg>
